<mxfile host="app.diagrams.net" agent="Mozilla/5.0 (Windows NT 10.0; Win64; x64) AppleWebKit/537.36 (KHTML, like Gecko) Chrome/138.0.0.0 Safari/537.36" version="28.0.7">
  <diagram name="Page-1" id="OUrxRXYr1wtMiYFMFGJ6">
    <mxGraphModel grid="1" page="1" gridSize="10" guides="1" tooltips="1" connect="1" arrows="1" fold="1" pageScale="1" pageWidth="850" pageHeight="1100" math="0" shadow="0">
      <root>
        <mxCell id="0" />
        <mxCell id="1" parent="0" />
        <mxCell id="I_-cUQeIdoOcH41CSGik-2" value="" style="rounded=0;whiteSpace=wrap;html=1;" vertex="1" parent="1">
          <mxGeometry x="110" y="260" width="630" height="550" as="geometry" />
        </mxCell>
        <mxCell id="I_-cUQeIdoOcH41CSGik-3" value="&lt;span style=&quot;font-weight: 400; text-wrap-mode: wrap;&quot;&gt;Model&lt;/span&gt;" style="shape=table;startSize=30;container=1;collapsible=1;childLayout=tableLayout;fixedRows=1;rowLines=0;fontStyle=1;align=center;resizeLast=1;html=1;" vertex="1" parent="1">
          <mxGeometry x="338" y="70" width="175" height="150" as="geometry" />
        </mxCell>
        <mxCell id="I_-cUQeIdoOcH41CSGik-4" value="" style="shape=tableRow;horizontal=0;startSize=0;swimlaneHead=0;swimlaneBody=0;fillColor=none;collapsible=0;dropTarget=0;points=[[0,0.5],[1,0.5]];portConstraint=eastwest;top=0;left=0;right=0;bottom=1;" vertex="1" parent="I_-cUQeIdoOcH41CSGik-3">
          <mxGeometry y="30" width="175" height="30" as="geometry" />
        </mxCell>
        <mxCell id="I_-cUQeIdoOcH41CSGik-5" value="PK" style="shape=partialRectangle;connectable=0;fillColor=none;top=0;left=0;bottom=0;right=0;fontStyle=1;overflow=hidden;whiteSpace=wrap;html=1;" vertex="1" parent="I_-cUQeIdoOcH41CSGik-4">
          <mxGeometry width="30" height="30" as="geometry">
            <mxRectangle width="30" height="30" as="alternateBounds" />
          </mxGeometry>
        </mxCell>
        <mxCell id="I_-cUQeIdoOcH41CSGik-6" value="&lt;span style=&quot;font-weight: normal;&quot;&gt;&lt;span style=&quot;font-family: Consolas, &amp;quot;Courier New&amp;quot;, monospace; font-size: 14px; white-space: pre; --darkreader-inline-bgcolor: light-dark(#ffffff, #060707);&quot; data-darkreader-inline-bgcolor=&quot;&quot;&gt;&lt;font style=&quot;color: rgb(12, 67, 96); --darkreader-inline-color: light-dark(#78a5bd, #466d81);&quot; data-darkreader-inline-color=&quot;&quot;&gt;ID&lt;/font&gt;&lt;/span&gt;&lt;/span&gt;" style="shape=partialRectangle;connectable=0;fillColor=none;top=0;left=0;bottom=0;right=0;align=left;spacingLeft=6;fontStyle=5;overflow=hidden;whiteSpace=wrap;html=1;" vertex="1" parent="I_-cUQeIdoOcH41CSGik-4">
          <mxGeometry x="30" width="145" height="30" as="geometry">
            <mxRectangle width="145" height="30" as="alternateBounds" />
          </mxGeometry>
        </mxCell>
        <mxCell id="I_-cUQeIdoOcH41CSGik-7" value="" style="shape=tableRow;horizontal=0;startSize=0;swimlaneHead=0;swimlaneBody=0;fillColor=none;collapsible=0;dropTarget=0;points=[[0,0.5],[1,0.5]];portConstraint=eastwest;top=0;left=0;right=0;bottom=0;" vertex="1" parent="I_-cUQeIdoOcH41CSGik-3">
          <mxGeometry y="60" width="175" height="30" as="geometry" />
        </mxCell>
        <mxCell id="I_-cUQeIdoOcH41CSGik-8" value="" style="shape=partialRectangle;connectable=0;fillColor=none;top=0;left=0;bottom=0;right=0;editable=1;overflow=hidden;whiteSpace=wrap;html=1;" vertex="1" parent="I_-cUQeIdoOcH41CSGik-7">
          <mxGeometry width="30" height="30" as="geometry">
            <mxRectangle width="30" height="30" as="alternateBounds" />
          </mxGeometry>
        </mxCell>
        <mxCell id="I_-cUQeIdoOcH41CSGik-9" value="&lt;div style=&quot;font-family: Consolas, &amp;quot;Courier New&amp;quot;, monospace; font-size: 14px; white-space: pre; line-height: 19px; --darkreader-inline-color: light-dark(#a6a199, #67625b);&quot; data-darkreader-inline-color=&quot;&quot;&gt;&lt;font style=&quot;color: light-dark(rgb(43, 83, 105), rgb(149, 196, 221));&quot;&gt;CreatedAt&lt;/font&gt;&lt;/div&gt;" style="shape=partialRectangle;connectable=0;fillColor=none;top=0;left=0;bottom=0;right=0;align=left;spacingLeft=6;overflow=hidden;whiteSpace=wrap;html=1;" vertex="1" parent="I_-cUQeIdoOcH41CSGik-7">
          <mxGeometry x="30" width="145" height="30" as="geometry">
            <mxRectangle width="145" height="30" as="alternateBounds" />
          </mxGeometry>
        </mxCell>
        <mxCell id="I_-cUQeIdoOcH41CSGik-10" value="" style="shape=tableRow;horizontal=0;startSize=0;swimlaneHead=0;swimlaneBody=0;fillColor=none;collapsible=0;dropTarget=0;points=[[0,0.5],[1,0.5]];portConstraint=eastwest;top=0;left=0;right=0;bottom=0;" vertex="1" parent="I_-cUQeIdoOcH41CSGik-3">
          <mxGeometry y="90" width="175" height="30" as="geometry" />
        </mxCell>
        <mxCell id="I_-cUQeIdoOcH41CSGik-11" value="" style="shape=partialRectangle;connectable=0;fillColor=none;top=0;left=0;bottom=0;right=0;editable=1;overflow=hidden;whiteSpace=wrap;html=1;" vertex="1" parent="I_-cUQeIdoOcH41CSGik-10">
          <mxGeometry width="30" height="30" as="geometry">
            <mxRectangle width="30" height="30" as="alternateBounds" />
          </mxGeometry>
        </mxCell>
        <mxCell id="I_-cUQeIdoOcH41CSGik-12" value="&lt;div style=&quot;font-family: Consolas, &amp;quot;Courier New&amp;quot;, monospace; font-size: 14px; white-space: pre; line-height: 19px; --darkreader-inline-color: light-dark(#a6a199, #67625b);&quot; data-darkreader-inline-color=&quot;&quot;&gt;&lt;font style=&quot;color: light-dark(rgb(43, 83, 105), rgb(149, 196, 221));&quot;&gt;UpdatedAt&lt;/font&gt;&lt;/div&gt;" style="shape=partialRectangle;connectable=0;fillColor=none;top=0;left=0;bottom=0;right=0;align=left;spacingLeft=6;overflow=hidden;whiteSpace=wrap;html=1;" vertex="1" parent="I_-cUQeIdoOcH41CSGik-10">
          <mxGeometry x="30" width="145" height="30" as="geometry">
            <mxRectangle width="145" height="30" as="alternateBounds" />
          </mxGeometry>
        </mxCell>
        <mxCell id="I_-cUQeIdoOcH41CSGik-13" value="" style="shape=tableRow;horizontal=0;startSize=0;swimlaneHead=0;swimlaneBody=0;fillColor=none;collapsible=0;dropTarget=0;points=[[0,0.5],[1,0.5]];portConstraint=eastwest;top=0;left=0;right=0;bottom=0;" vertex="1" parent="I_-cUQeIdoOcH41CSGik-3">
          <mxGeometry y="120" width="175" height="30" as="geometry" />
        </mxCell>
        <mxCell id="I_-cUQeIdoOcH41CSGik-14" value="" style="shape=partialRectangle;connectable=0;fillColor=none;top=0;left=0;bottom=0;right=0;editable=1;overflow=hidden;whiteSpace=wrap;html=1;" vertex="1" parent="I_-cUQeIdoOcH41CSGik-13">
          <mxGeometry width="30" height="30" as="geometry">
            <mxRectangle width="30" height="30" as="alternateBounds" />
          </mxGeometry>
        </mxCell>
        <mxCell id="I_-cUQeIdoOcH41CSGik-15" value="&lt;div style=&quot;font-family: Consolas, &amp;quot;Courier New&amp;quot;, monospace; font-size: 14px; white-space: pre; line-height: 19px; --darkreader-inline-color: light-dark(#a6a199, #67625b);&quot; data-darkreader-inline-color=&quot;&quot;&gt;&lt;font style=&quot;color: light-dark(rgb(43, 83, 105), rgb(149, 196, 221));&quot;&gt;DeletedAt&lt;/font&gt;&lt;/div&gt;" style="shape=partialRectangle;connectable=0;fillColor=none;top=0;left=0;bottom=0;right=0;align=left;spacingLeft=6;overflow=hidden;whiteSpace=wrap;html=1;" vertex="1" parent="I_-cUQeIdoOcH41CSGik-13">
          <mxGeometry x="30" width="145" height="30" as="geometry">
            <mxRectangle width="145" height="30" as="alternateBounds" />
          </mxGeometry>
        </mxCell>
        <mxCell id="I_-cUQeIdoOcH41CSGik-25" style="edgeStyle=orthogonalEdgeStyle;rounded=0;orthogonalLoop=1;jettySize=auto;html=1;" edge="1" parent="1" source="I_-cUQeIdoOcH41CSGik-18" target="I_-cUQeIdoOcH41CSGik-21">
          <mxGeometry relative="1" as="geometry" />
        </mxCell>
        <mxCell id="I_-cUQeIdoOcH41CSGik-30" style="edgeStyle=orthogonalEdgeStyle;rounded=0;orthogonalLoop=1;jettySize=auto;html=1;" edge="1" parent="1" source="I_-cUQeIdoOcH41CSGik-18" target="I_-cUQeIdoOcH41CSGik-20">
          <mxGeometry relative="1" as="geometry" />
        </mxCell>
        <mxCell id="I_-cUQeIdoOcH41CSGik-18" value="Client" style="rounded=0;whiteSpace=wrap;html=1;" vertex="1" parent="1">
          <mxGeometry x="345" y="600" width="120" height="60" as="geometry" />
        </mxCell>
        <mxCell id="I_-cUQeIdoOcH41CSGik-26" style="edgeStyle=orthogonalEdgeStyle;rounded=0;orthogonalLoop=1;jettySize=auto;html=1;" edge="1" parent="1" source="I_-cUQeIdoOcH41CSGik-19" target="I_-cUQeIdoOcH41CSGik-21">
          <mxGeometry relative="1" as="geometry" />
        </mxCell>
        <mxCell id="I_-cUQeIdoOcH41CSGik-27" style="edgeStyle=orthogonalEdgeStyle;rounded=0;orthogonalLoop=1;jettySize=auto;html=1;entryX=0.5;entryY=0;entryDx=0;entryDy=0;" edge="1" parent="1" source="I_-cUQeIdoOcH41CSGik-19" target="I_-cUQeIdoOcH41CSGik-22">
          <mxGeometry relative="1" as="geometry" />
        </mxCell>
        <mxCell id="I_-cUQeIdoOcH41CSGik-19" value="Staff" style="rounded=0;whiteSpace=wrap;html=1;" vertex="1" parent="1">
          <mxGeometry x="345" y="370" width="120" height="60" as="geometry" />
        </mxCell>
        <mxCell id="I_-cUQeIdoOcH41CSGik-29" style="edgeStyle=orthogonalEdgeStyle;rounded=0;orthogonalLoop=1;jettySize=auto;html=1;" edge="1" parent="1" source="I_-cUQeIdoOcH41CSGik-20" target="I_-cUQeIdoOcH41CSGik-21">
          <mxGeometry relative="1" as="geometry" />
        </mxCell>
        <mxCell id="I_-cUQeIdoOcH41CSGik-20" value="Pet" style="rounded=0;whiteSpace=wrap;html=1;" vertex="1" parent="1">
          <mxGeometry x="150" y="460" width="120" height="60" as="geometry" />
        </mxCell>
        <mxCell id="I_-cUQeIdoOcH41CSGik-21" value="Service" style="rounded=0;whiteSpace=wrap;html=1;" vertex="1" parent="1">
          <mxGeometry x="345" y="460" width="120" height="60" as="geometry" />
        </mxCell>
        <mxCell id="I_-cUQeIdoOcH41CSGik-22" value="Order" style="rounded=0;whiteSpace=wrap;html=1;" vertex="1" parent="1">
          <mxGeometry x="493" y="460" width="120" height="60" as="geometry" />
        </mxCell>
        <mxCell id="I_-cUQeIdoOcH41CSGik-31" style="edgeStyle=orthogonalEdgeStyle;rounded=0;orthogonalLoop=1;jettySize=auto;html=1;entryX=1;entryY=0.5;entryDx=0;entryDy=0;" edge="1" parent="1" source="I_-cUQeIdoOcH41CSGik-23" target="I_-cUQeIdoOcH41CSGik-22">
          <mxGeometry relative="1" as="geometry" />
        </mxCell>
        <mxCell id="I_-cUQeIdoOcH41CSGik-23" value="Product" style="rounded=0;whiteSpace=wrap;html=1;" vertex="1" parent="1">
          <mxGeometry x="580" y="370" width="120" height="60" as="geometry" />
        </mxCell>
        <mxCell id="I_-cUQeIdoOcH41CSGik-28" style="edgeStyle=orthogonalEdgeStyle;rounded=0;orthogonalLoop=1;jettySize=auto;html=1;entryX=0.558;entryY=1;entryDx=0;entryDy=0;entryPerimeter=0;" edge="1" parent="1" source="I_-cUQeIdoOcH41CSGik-18" target="I_-cUQeIdoOcH41CSGik-22">
          <mxGeometry relative="1" as="geometry" />
        </mxCell>
      </root>
    </mxGraphModel>
  </diagram>
</mxfile>
